<svg width="37" height="59" viewBox="0 0 37 59" fill="none" xmlns="http://www.w3.org/2000/svg">
<path fill-rule="evenodd" clip-rule="evenodd" d="M29.2105 48.1053V52.0589H33.1103C35.2585 52.0589 37 50.3411 37 48.2076V15.4248H27.2747C25.1173 15.4248 23.3684 13.7152 23.3684 11.5723V0H3.91135C1.75117 0 0 1.73209 0 3.87035V48.1885C0 50.326 1.73496 52.0589 3.88972 52.0589H19.4737V48.1053C18.2691 46.8881 17.5263 45.2211 17.5263 43.3824C17.5263 39.6554 20.5778 36.634 24.3421 36.634C28.1064 36.634 31.1579 39.6554 31.1579 43.3824C31.1579 45.2211 30.4152 46.8881 29.2105 48.1053ZM21.4211 49.4813V59L24.3421 56.1079L27.2632 59V49.4813C26.3778 49.8978 25.3874 50.1308 24.3421 50.1308C23.2968 50.1308 22.3064 49.8978 21.4211 49.4813ZM25.3158 0V11.563C25.3158 12.631 26.194 13.4967 27.2452 13.4967H37L25.3158 0ZM5.8421 13.4967V15.4248H19.4737V13.4967H5.8421ZM5.8421 7.71242V9.64053H19.4737V7.71242H5.8421ZM5.8421 19.2811V21.2092H31.1579V19.2811H5.8421ZM5.8421 25.0654V26.9935H31.1579V25.0654H5.8421ZM5.8421 30.8497V32.7778H31.1579V30.8497H5.8421ZM24.3421 48.2027C27.0309 48.2027 29.2105 46.0445 29.2105 43.3824C29.2105 40.7202 27.0309 38.5621 24.3421 38.5621C21.6534 38.5621 19.4737 40.7202 19.4737 43.3824C19.4737 46.0445 21.6534 48.2027 24.3421 48.2027Z" fill="#3A6F85"/>
</svg>
