<svg width="54" height="54" viewBox="0 0 54 54" fill="none" xmlns="http://www.w3.org/2000/svg">
<path d="M9.76514 0V4.88257H0V46.3844C0 48.3268 0.771618 50.1897 2.14511 51.5631C3.5186 52.9366 5.38145 53.7083 7.32385 53.7083H44.529C46.9615 53.7018 49.2926 52.7326 51.0126 51.0126C52.7326 49.2926 53.7018 46.9615 53.7083 44.529V0H9.76514ZM4.88257 46.3844V9.76514H9.76514V46.3844C9.76514 47.0319 9.50793 47.6528 9.0501 48.1106C8.59227 48.5685 7.97132 48.8257 7.32385 48.8257C6.67638 48.8257 6.05543 48.5685 5.5976 48.1106C5.13977 47.6528 4.88257 47.0319 4.88257 46.3844ZM48.8257 44.529C48.8257 45.0933 48.7145 45.652 48.4986 46.1733C48.2827 46.6946 47.9662 47.1682 47.5672 47.5672C47.1682 47.9662 46.6946 48.2827 46.1733 48.4986C45.652 48.7145 45.0933 48.8257 44.529 48.8257H14.2083C14.4925 48.0428 14.6411 47.2172 14.6477 46.3844V4.88257H48.8257V44.529Z" fill="#3A6F85"/>
</svg>
