<svg width="47" height="47" viewBox="0 0 47 47" fill="none" xmlns="http://www.w3.org/2000/svg">
<path d="M23.5 0C29.7251 0 35.7176 2.46738 40.1121 6.88515C44.5301 11.3053 47 17.2716 47 23.5223C47 31.7469 42.6736 39.384 35.6236 43.6373C28.5737 47.8906 19.8081 48.1256 12.5255 44.2483H12.4526C11.75 43.9663 11.1837 43.4728 10.5257 43.1438C9.7995 42.8383 8.97465 42.7913 8.225 43.0287C6.48365 43.6373 4.72115 44.1308 2.91165 44.5537C1.97165 44.5772 1.68965 44.0133 1.68965 43.0968C2.11265 41.2404 2.67665 39.4052 3.337 37.6216C3.59315 36.8461 3.525 36.0237 3.1255 35.2929L2.6555 34.3788C0.91415 31.0654 0 27.3761 0 23.6422V23.4988C0 17.2716 2.46515 11.2794 6.88315 6.88515C11.3011 2.46738 17.2701 0 23.5 0ZM34.3312 20.5145C32.6861 20.5145 31.3255 21.8539 31.3255 23.5223C31.3255 25.1672 32.6861 26.5302 34.3312 26.5302C35.9996 26.5302 37.3391 25.1672 37.3391 23.5223C37.3391 21.8539 35.9996 20.5145 34.3312 20.5145ZM23.5 20.5145C21.8315 20.5145 20.4896 21.8539 20.4896 23.5223C20.4896 25.1672 21.8315 26.5302 23.5 26.5302C25.1685 26.5302 26.5056 25.1672 26.5056 23.5223C26.5056 21.8539 25.1685 20.5145 23.5 20.5145ZM12.6641 20.5145C10.9956 20.5145 9.65615 21.8539 9.65615 23.5223C9.65615 25.1672 10.9956 26.5302 12.6641 26.5302C14.3091 26.5302 15.6745 25.1672 15.6745 23.5223C15.6745 21.8539 14.3091 20.5145 12.6641 20.5145Z" fill="#3A6F85"/>
</svg>
