<svg width="52" height="52" viewBox="0 0 52 52" fill="none" xmlns="http://www.w3.org/2000/svg">
<path d="M51.7635 25.3294C51.7613 25.2592 51.7602 25.1901 51.758 25.121C51.7546 25.0073 51.7502 24.8925 51.7457 24.7788C51.7368 24.5882 51.7279 24.3976 51.7145 24.2081C51.7123 24.1669 51.71 24.1279 51.7078 24.0866C51.6989 23.9528 51.6878 23.818 51.6766 23.6842L51.6699 23.6073C51.1364 17.5789 48.5079 11.9278 44.2411 7.63589C39.9742 3.34398 34.3386 0.682448 28.3134 0.113695C28.29 0.111464 28.2666 0.110346 28.2432 0.108124C28.0247 0.0880626 27.804 0.0713374 27.5833 0.0579647C27.5209 0.0523938 27.4596 0.0490455 27.3983 0.0457054C27.2088 0.0356687 27.0171 0.0256444 26.8276 0.018956C26.7607 0.0167252 26.6949 0.0144943 26.6292 0.0122676C26.3817 0.00557918 26.1343 0 25.8857 0C25.6906 0 25.4956 0.00334835 25.3016 0.00780175C25.2035 0.0100326 25.1043 0.0144901 25.0051 0.016721C24.9204 0.0200444 24.8368 0.0222919 24.7543 0.0256403C24.6061 0.033442 24.4578 0.0412396 24.3107 0.0490455C24.2951 0.050163 24.2817 0.0512764 24.2661 0.0512764C18.0894 0.438973 12.256 3.02655 7.82297 7.34507C3.38993 11.6636 0.650611 17.4273 0.101431 23.5917C0.0323286 24.3419 0 25.0608 0 25.8857C0 26.0874 0.00223085 26.2892 0.00780175 26.4898L0.0144901 26.7061C0.0178385 26.8331 0.0222975 26.9602 0.027867 27.0873C0.0334379 27.1775 0.0379037 27.2667 0.0423571 27.357C0.047928 27.4629 0.0557339 27.5688 0.0624182 27.6758C0.0691066 27.7772 0.075795 27.8798 0.0847142 27.9812C0.0914026 28.0704 0.0992044 28.1607 0.108124 28.2498C0.118152 28.3635 0.128185 28.4772 0.140448 28.5909C0.14825 28.6712 0.158287 28.7514 0.166084 28.8328C0.173886 28.9164 0.181692 28.9989 0.192842 29.0814L0.212903 29.2174C0.438631 30.994 0.849958 32.742 1.44014 34.4329C1.44148 34.4393 1.44334 34.4456 1.44571 34.4518C1.49476 34.5923 1.54603 34.7338 1.59842 34.8754C1.61625 34.9222 1.63409 34.969 1.65081 35.0158C1.69429 35.1329 1.73888 35.2488 1.78457 35.3636C1.8169 35.4483 1.85034 35.5308 1.8849 35.6133C1.91833 35.698 1.95178 35.7827 1.98744 35.8652C4.36232 41.5759 8.71023 46.243 14.2386 49.0159C14.2549 49.0253 14.2716 49.0339 14.2888 49.0415C14.4192 49.1073 14.5518 49.172 14.6845 49.2344C14.7714 49.2768 14.8595 49.3191 14.9464 49.3592C14.9888 49.3793 15.0311 49.3982 15.0724 49.4183C18.4644 50.9749 22.1536 51.7777 25.8857 51.7713H25.9002C26.1153 51.7713 26.3315 51.768 26.5456 51.7624C26.5801 51.7613 26.6124 51.7591 26.6448 51.7591C26.8354 51.7535 27.0249 51.7468 27.2121 51.7368C27.221 51.7368 27.2299 51.7357 27.2389 51.7357C33.6276 51.401 39.6661 48.7123 44.1895 44.1883C48.7129 39.6643 51.4007 33.6254 51.7346 27.2366C51.7357 27.2288 51.7357 27.221 51.7368 27.2132C51.7468 27.0237 51.7535 26.8331 51.758 26.6414L51.7613 26.5467C51.768 26.3282 51.7702 26.1075 51.7702 25.8868V25.8857C51.7702 25.7006 51.768 25.5145 51.7635 25.3294ZM25.8857 48.3549C25.7909 48.3549 25.6973 48.3516 25.6037 48.3505C25.4911 48.3493 25.2414 48.1075 25.1455 48.0417C24.9672 47.9191 24.7903 47.795 24.615 47.6694C24.2839 47.4309 23.9584 47.1834 23.6419 46.9259C22.8608 46.3206 22.1759 45.6007 21.6102 44.7905C20.4113 42.9738 20.632 40.8705 21.7271 39.0621C22.5091 37.7709 23.7288 36.7537 24.6535 35.5587C25.7076 34.2623 26.5066 32.7779 27.0081 31.184C27.2303 30.4736 27.2812 29.7207 27.1564 28.9869C27.0317 28.2531 26.735 27.5593 26.2905 26.9622C25.2128 25.6359 23.2322 24.9249 21.6355 24.5079C21.4348 24.4556 21.2309 24.4132 21.0258 24.3786C20.5723 24.3082 20.1154 24.2617 19.657 24.2393C18.0026 24.1453 16.3434 24.1807 14.6945 24.3452C13.2477 24.4857 11.7273 24.9349 10.3574 24.2349C9.17586 23.6329 8.11248 22.8215 6.81056 22.4826C5.79964 22.2523 4.7653 22.1409 3.72853 22.1504C4.23477 19.1517 5.34435 16.287 6.99007 13.7296C8.6358 11.1723 10.7834 8.97551 13.3029 7.27239C15.8224 5.56928 18.6614 4.39523 21.6479 3.82133C24.6344 3.24744 27.7063 3.28564 30.6776 3.93362C30.779 5.64685 32.3351 6.69128 31.5336 8.51152C30.4524 10.966 27.4061 11.695 26.1599 14.019C25.8725 14.5171 25.7324 15.0866 25.7558 15.6612C25.7793 16.2358 25.9654 16.7919 26.2925 17.2649C26.7439 17.9727 27.1562 18.7046 27.5276 19.4574C28.0704 20.5075 28.6556 21.8796 29.7301 22.4982C32.8735 24.3107 33.1276 18.6671 35.2889 18.3105C36.4548 18.1176 37.1136 18.7775 37.6631 19.7082C38.3186 20.8162 38.8436 21.786 40.228 22.0568C41.1008 22.1817 41.9869 22.1817 42.8597 22.0568C43.2899 22.0156 47.8812 21.2899 47.8266 21.0436C48.5505 24.3264 48.5287 27.7299 47.7627 31.0031C46.9967 34.2764 45.5061 37.3362 43.4007 39.9569C41.2953 42.5777 38.6287 44.6926 35.5974 46.1461C32.5661 47.5995 29.2474 48.3543 25.8857 48.3549L25.8857 48.3549Z" fill="#3A6F85"/>
</svg>
